<svg xmlns="http://www.w3.org/2000/svg" width="1200" height="480" viewBox="0 0 1200 480" role="img" aria-labelledby="title desc">
<title id="title">Timeline run-069</title>
<desc id="desc">Full 90-day legitimate landed-price curve with cap and purchase markers.</desc>
<rect width="1200" height="480" fill="#FFFFFF"/>
<style>text{font-family:Inter,Arial,sans-serif;fill:#080808} .small{font-size:11px} .label{font-size:13px;font-weight:600} .title{font-size:22px;font-weight:700}</style>
<text x="48" y="40" class="title">run-069 · SH019335 · EU 45</text>
<text x="48" y="66" class="label">Cap €153.51 · optimum €125.87 on day 55</text>
<rect x="70.0" y="95.0" width="1080.0" height="310.0" fill="#F4F6F3" stroke="#D8DDD9"/>
<line x1="70.0" y1="197.7" x2="1150.0" y2="197.7" stroke="#C52A22" stroke-width="1" stroke-dasharray="4 3"/>
<path d="M70.0,140.7 L82.1,137.4 L94.3,147.3 L106.4,154.8 L118.5,134.3 L130.7,144.4 L142.8,150.2 L154.9,164.7 L167.1,148.9 L179.2,173.6 L191.3,324.6 L203.5,323.3 L215.6,307.2 L227.8,310.2 L239.9,326.0 L252.0,320.9 L264.2,316.4 L276.3,170.2 L288.4,152.4 L300.6,165.0 L312.7,148.1 L324.8,158.2 L337.0,146.4 L349.1,144.2 L361.2,148.3 L373.4,155.1 L385.5,183.3 L397.6,180.4 L409.8,177.7 L421.9,172.7 L434.0,160.4 L446.2,145.5 L458.3,156.2 L470.4,168.1 L482.6,192.5 L494.7,210.4 L506.9,229.8 L519.0,215.6 L531.1,241.7 L543.3,226.2 L555.4,224.0 L567.5,231.3 L579.7,206.4 L591.8,206.5 L603.9,216.5 L616.1,196.8 L628.2,202.7" fill="none" stroke="#59615B" stroke-width="1.5"/>
<path d="M725.3,157.5 L737.4,383.6 L749.6,382.4 L761.7,383.6 L773.8,142.1 L786.0,141.7 L798.1,126.7 L810.2,131.6 L822.4,133.5 L834.5,142.2 L846.6,155.0 L858.8,156.1 L870.9,155.0 L883.0,172.5 L895.2,173.9 L907.3,177.8 L919.4,163.0 L931.6,163.9 L943.7,146.3 L955.8,134.1 L968.0,132.9 L980.1,144.8 L992.2,116.4 L1004.4,127.7 L1016.5,135.3 L1028.7,127.0 L1040.8,131.6" fill="none" stroke="#59615B" stroke-width="1.5"/>
<path d="M1077.2,147.1 L1089.3,136.2 L1101.5,143.1 L1113.6,139.9 L1125.7,153.6 L1137.9,142.3 L1150.0,161.9" fill="none" stroke="#59615B" stroke-width="1.5"/>
<polygon points="737.4,377.6 743.4,383.6 737.4,389.6 731.4,383.6" fill="#2859C5" stroke="#FFFFFF" stroke-width="1"/>
<circle cx="191.3" cy="324.6" r="6" fill="#137A3D" stroke="#FFFFFF" stroke-width="1"/>
<rect x="209.6" y="301.2" width="12.0" height="12.0" fill="#A76100" stroke="#FFFFFF" stroke-width="1"/>
<text x="70.0" y="430" text-anchor="middle" class="small">day 0</text>
<text x="434.0" y="430" text-anchor="middle" class="small">day 30</text>
<text x="798.1" y="430" text-anchor="middle" class="small">day 60</text>
<text x="1150.0" y="430" text-anchor="middle" class="small">day 89</text>
<text x="70" y="460" class="small" fill="#137A3D">● SolidHunt improved monitor: day 10, €134.65</text>
<text x="380" y="460" class="small" fill="#A76100">■ Casual checkout shopper (3-day): day 12, €137.23</text>
<text x="850" y="460" class="small" fill="#2859C5">◆ Optimal: day 55, €125.87</text>
</svg>
