<svg xmlns="http://www.w3.org/2000/svg" width="1200" height="480" viewBox="0 0 1200 480" role="img" aria-labelledby="title desc">
<title id="title">Timeline run-023</title>
<desc id="desc">Full 90-day legitimate landed-price curve with cap and purchase markers.</desc>
<rect width="1200" height="480" fill="#FFFFFF"/>
<rect width="1200" height="8" fill="#43F27E"/>
<style>text{font-family:Inter,Arial,Helvetica,sans-serif;fill:#080808} .small{font-size:11px} .label{font-size:13px;font-weight:650} .title{font-size:24px;font-weight:750;letter-spacing:-.7px} .subtitle{font-size:12px;fill:#59615B} .metric{font-size:18px;font-weight:750;letter-spacing:-.3px}</style>
<g aria-label="SolidHunt" transform="translate(1034 19)">
<rect width="28" height="28" fill="#43F27E"/>
<path d="M6 12V6H12 M16 6H22V12 M22 16V22H16 M12 22H6V16" fill="none" stroke="#080808" stroke-width="3"/>
<rect x="13" y="13" width="3" height="3" fill="#080808" transform="rotate(45 14.5 14.5)"/>
<text x="38" y="21" font-size="17" letter-spacing="-.7"><tspan font-weight="500">solid</tspan><tspan font-weight="750">hunt</tspan></text>
</g>
<text x="48" y="40" class="title">run-023 · SH017354 · EU 45</text>
<text x="48" y="66" class="label">Cap €139.20 · optimum €128.49 on day 1</text>
<rect x="70.0" y="95.0" width="1080.0" height="310.0" fill="#F4F6F3" stroke="#D8DDD9"/>
<line x1="70.0" y1="313.3" x2="1150.0" y2="313.3" stroke="#C52A22" stroke-width="1" stroke-dasharray="4 3"/>
<path d="M70.0,238.0 L82.1,383.6 L94.3,262.1 L106.4,238.9 L118.5,243.6 L130.7,241.2 L142.8,238.1 L154.9,251.5 L167.1,267.1 L179.2,263.3 L191.3,245.3 L203.5,242.9 L215.6,223.9 L227.8,214.3 L239.9,222.3 L252.0,234.5 L264.2,220.4 L276.3,214.7 L288.4,221.7 L300.6,233.8 L312.7,176.7 L324.8,151.7 L337.0,160.7 L349.1,169.3 L361.2,158.4 L373.4,131.4 L385.5,136.9 L397.6,153.6 L409.8,168.8 L421.9,178.9 L434.0,184.6 L446.2,165.1 L458.3,146.7 L470.4,153.1 L482.6,152.1 L494.7,148.8 L506.9,156.3 L519.0,147.2 L531.1,134.2 L543.3,128.0 L555.4,152.4 L567.5,151.5 L579.7,144.1 L591.8,278.4 L603.9,264.0 L616.1,260.5 L628.2,259.7 L640.3,259.3 L652.5,264.3 L664.6,279.5 L676.7,281.9" fill="none" stroke="#59615B" stroke-width="1.5"/>
<path d="M883.0,267.6 L895.2,259.1" fill="none" stroke="#59615B" stroke-width="1.5"/>
<path d="M968.0,245.4 L980.1,240.1 L992.2,239.7" fill="none" stroke="#59615B" stroke-width="1.5"/>
<path d="M1028.7,150.4 L1040.8,166.1 L1052.9,151.0 L1065.1,168.8 L1077.2,157.6 L1089.3,149.3 L1101.5,139.1 L1113.6,149.6 L1125.7,128.1 L1137.9,116.4 L1150.0,126.0" fill="none" stroke="#59615B" stroke-width="1.5"/>
<polygon points="82.1,377.6 88.1,383.6 82.1,389.6 76.1,383.6" fill="#2859C5" stroke="#FFFFFF" stroke-width="1"/>
<circle cx="82.1" cy="383.6" r="6" fill="#43F27E" stroke="#080808" stroke-width="1.4"/>
<text x="70.0" y="430" text-anchor="middle" class="small">day 0</text>
<text x="434.0" y="430" text-anchor="middle" class="small">day 30</text>
<text x="798.1" y="430" text-anchor="middle" class="small">day 60</text>
<text x="1150.0" y="430" text-anchor="middle" class="small">day 89</text>
<text x="70" y="460" class="small" fill="#43F27E">● SolidHunt improved monitor: day 1, €128.49</text>
<text x="380" y="460" class="small" fill="#080808">■ Casual checkout shopper (3-day): miss</text>
<text x="850" y="460" class="small" fill="#2859C5">◆ Optimal: day 1, €128.49</text>
</svg>
