<svg xmlns="http://www.w3.org/2000/svg" width="1200" height="480" viewBox="0 0 1200 480" role="img" aria-labelledby="title desc">
<title id="title">Timeline run-046</title>
<desc id="desc">Full 90-day legitimate landed-price curve with cap and purchase markers.</desc>
<rect width="1200" height="480" fill="#FFFFFF"/>
<style>text{font-family:Inter,Arial,sans-serif;fill:#080808} .small{font-size:11px} .label{font-size:13px;font-weight:600} .title{font-size:22px;font-weight:700}</style>
<text x="48" y="40" class="title">run-046 · SH018328 · EU 42</text>
<text x="48" y="66" class="label">Cap €181.24 · optimum €171.21 on day 6</text>
<rect x="70.0" y="95.0" width="1080.0" height="310.0" fill="#F4F6F3" stroke="#D8DDD9"/>
<line x1="70.0" y1="310.9" x2="1150.0" y2="310.9" stroke="#C52A22" stroke-width="1" stroke-dasharray="4 3"/>
<path d="M70.0,169.0 L82.1,158.9 L94.3,154.8 L106.4,160.3 L118.5,166.5 L130.7,137.0 L142.8,383.6 L154.9,372.8 L167.1,369.2 L179.2,156.9 L191.3,158.8 L203.5,168.2 L215.6,162.1 L227.8,189.7 L239.9,164.0 L252.0,163.8" fill="none" stroke="#59615B" stroke-width="1.5"/>
<path d="M931.6,181.5 L943.7,188.0 L955.8,194.0 L968.0,182.2 L980.1,183.3 L992.2,171.4 L1004.4,176.9 L1016.5,178.5 L1028.7,193.8 L1040.8,190.1 L1052.9,164.0 L1065.1,162.4 L1077.2,150.5" fill="none" stroke="#59615B" stroke-width="1.5"/>
<path d="M1137.9,142.7 L1150.0,116.4" fill="none" stroke="#59615B" stroke-width="1.5"/>
<polygon points="142.8,377.6 148.8,383.6 142.8,389.6 136.8,383.6" fill="#2859C5" stroke="#FFFFFF" stroke-width="1"/>
<circle cx="142.8" cy="383.6" r="6" fill="#137A3D" stroke="#FFFFFF" stroke-width="1"/>
<rect x="136.8" y="377.6" width="12.0" height="12.0" fill="#A76100" stroke="#FFFFFF" stroke-width="1"/>
<text x="70.0" y="430" text-anchor="middle" class="small">day 0</text>
<text x="434.0" y="430" text-anchor="middle" class="small">day 30</text>
<text x="798.1" y="430" text-anchor="middle" class="small">day 60</text>
<text x="1150.0" y="430" text-anchor="middle" class="small">day 89</text>
<text x="70" y="460" class="small" fill="#137A3D">● SolidHunt improved monitor: day 6, €171.21</text>
<text x="380" y="460" class="small" fill="#A76100">■ Casual checkout shopper (3-day): day 6, €171.21</text>
<text x="850" y="460" class="small" fill="#2859C5">◆ Optimal: day 6, €171.21</text>
</svg>
