<svg xmlns="http://www.w3.org/2000/svg" width="1200" height="480" viewBox="0 0 1200 480" role="img" aria-labelledby="title desc">
<title id="title">Timeline run-019</title>
<desc id="desc">Full 90-day legitimate landed-price curve with cap and purchase markers.</desc>
<rect width="1200" height="480" fill="#FFFFFF"/>
<style>text{font-family:Inter,Arial,sans-serif;fill:#080808} .small{font-size:11px} .label{font-size:13px;font-weight:600} .title{font-size:22px;font-weight:700}</style>
<text x="48" y="40" class="title">run-019 · SH019697 · EU 40</text>
<text x="48" y="66" class="label">Cap €171.19 · optimum €158.51 on day 7</text>
<rect x="70.0" y="95.0" width="1080.0" height="310.0" fill="#F4F6F3" stroke="#D8DDD9"/>
<line x1="70.0" y1="116.4" x2="1150.0" y2="116.4" stroke="#C52A22" stroke-width="1" stroke-dasharray="4 3"/>
<path d="M70.0,253.8 L82.1,281.8 L94.3,202.4 L106.4,203.8 L118.5,221.5 L130.7,279.7 L142.8,352.0 L154.9,383.6 L167.1,306.7 L179.2,283.7 L191.3,312.2 L203.5,298.5 L215.6,314.3 L227.8,226.4" fill="none" stroke="#59615B" stroke-width="1.5"/>
<path d="M616.1,279.9 L628.2,276.3 L640.3,324.4 L652.5,346.5 L664.6,283.3 L676.7,302.7 L688.9,259.3 L701.0,248.5 L713.1,185.3 L725.3,181.3 L737.4,159.0 L749.6,234.8 L761.7,237.1 L773.8,257.8 L786.0,266.0 L798.1,227.4 L810.2,164.2 L822.4,185.1 L834.5,140.2 L846.6,188.0 L858.8,197.5 L870.9,180.4 L883.0,294.0 L895.2,271.5 L907.3,256.5 L919.4,270.2 L931.6,286.3" fill="none" stroke="#59615B" stroke-width="1.5"/>
<polygon points="154.9,377.6 160.9,383.6 154.9,389.6 148.9,383.6" fill="#2859C5" stroke="#FFFFFF" stroke-width="1"/>
<rect x="64.0" y="247.8" width="12.0" height="12.0" fill="#A76100" stroke="#FFFFFF" stroke-width="1"/>
<text x="70.0" y="430" text-anchor="middle" class="small">day 0</text>
<text x="434.0" y="430" text-anchor="middle" class="small">day 30</text>
<text x="798.1" y="430" text-anchor="middle" class="small">day 60</text>
<text x="1150.0" y="430" text-anchor="middle" class="small">day 89</text>
<text x="70" y="460" class="small" fill="#137A3D">● SolidHunt: miss</text>
<text x="350" y="460" class="small" fill="#A76100">■ Casual shopper: day 0, €164.67</text>
<text x="680" y="460" class="small" fill="#2859C5">◆ Optimal: day 7, €158.51</text>
</svg>
