<svg xmlns="http://www.w3.org/2000/svg" width="1200" height="480" viewBox="0 0 1200 480" role="img" aria-labelledby="title desc">
<title id="title">Timeline run-012</title>
<desc id="desc">Full 90-day legitimate landed-price curve with cap and purchase markers.</desc>
<rect width="1200" height="480" fill="#FFFFFF"/>
<style>text{font-family:Inter,Arial,sans-serif;fill:#080808} .small{font-size:11px} .label{font-size:13px;font-weight:600} .title{font-size:22px;font-weight:700}</style>
<text x="48" y="40" class="title">run-012 · SH007404 · EU 45</text>
<text x="48" y="66" class="label">Cap €213.30 · optimum €198.50 on day 11</text>
<rect x="70.0" y="95.0" width="1080.0" height="310.0" fill="#F4F6F3" stroke="#D8DDD9"/>
<line x1="70.0" y1="123.9" x2="1150.0" y2="123.9" stroke="#C52A22" stroke-width="1" stroke-dasharray="4 3"/>
<path d="M70.0,118.7 L82.1,146.0 L94.3,124.8 L106.4,116.4 L118.5,148.8 L130.7,184.3 L142.8,309.2 L154.9,266.2 L167.1,243.6 L179.2,249.4 L191.3,373.1 L203.5,383.6 L215.6,230.6 L227.8,321.0 L239.9,349.6 L252.0,356.4 L264.2,259.9" fill="none" stroke="#59615B" stroke-width="1.5"/>
<polygon points="203.5,377.6 209.5,383.6 203.5,389.6 197.5,383.6" fill="#2859C5" stroke="#FFFFFF" stroke-width="1"/>
<rect x="136.8" y="303.2" width="12.0" height="12.0" fill="#A76100" stroke="#FFFFFF" stroke-width="1"/>
<text x="70.0" y="430" text-anchor="middle" class="small">day 0</text>
<text x="434.0" y="430" text-anchor="middle" class="small">day 30</text>
<text x="798.1" y="430" text-anchor="middle" class="small">day 60</text>
<text x="1150.0" y="430" text-anchor="middle" class="small">day 89</text>
<text x="70" y="460" class="small" fill="#137A3D">● SolidHunt: miss</text>
<text x="350" y="460" class="small" fill="#A76100">■ Casual shopper: day 6, €202.74</text>
<text x="680" y="460" class="small" fill="#2859C5">◆ Optimal: day 11, €198.50</text>
</svg>
