<svg xmlns="http://www.w3.org/2000/svg" width="1200" height="480" viewBox="0 0 1200 480" role="img" aria-labelledby="title desc">
<title id="title">Timeline run-054</title>
<desc id="desc">Full 90-day legitimate landed-price curve with cap and purchase markers.</desc>
<rect width="1200" height="480" fill="#FFFFFF"/>
<style>text{font-family:Inter,Arial,sans-serif;fill:#080808} .small{font-size:11px} .label{font-size:13px;font-weight:600} .title{font-size:22px;font-weight:700}</style>
<text x="48" y="40" class="title">run-054 · SH008169 · EU 44</text>
<text x="48" y="66" class="label">Cap €144.24 · optimum €137.58 on day 34</text>
<rect x="70.0" y="95.0" width="1080.0" height="310.0" fill="#F4F6F3" stroke="#D8DDD9"/>
<line x1="70.0" y1="342.8" x2="1150.0" y2="342.8" stroke="#C52A22" stroke-width="1" stroke-dasharray="4 3"/>
<path d="M70.0,144.9 L82.1,163.9 L94.3,164.3 L106.4,164.3 L118.5,146.3 L130.7,159.9 L142.8,173.9 L154.9,171.4 L167.1,292.0 L179.2,298.4 L191.3,296.2 L203.5,172.7 L215.6,178.2 L227.8,178.3 L239.9,190.9 L252.0,199.5 L264.2,201.1 L276.3,197.0 L288.4,182.8 L300.6,180.7 L312.7,186.7 L324.8,200.3 L337.0,198.6 L349.1,190.0 L361.2,169.7 L373.4,167.4 L385.5,188.3 L397.6,167.8 L409.8,153.3 L421.9,167.1 L434.0,155.8 L446.2,157.9 L458.3,153.9 L470.4,150.1 L482.6,383.6 L494.7,161.9 L506.9,149.4 L519.0,142.5 L531.1,163.5 L543.3,161.0 L555.4,133.9 L567.5,116.4 L579.7,127.4 L591.8,126.8 L603.9,137.8 L616.1,139.4 L628.2,147.8 L640.3,158.8 L652.5,157.5 L664.6,155.7 L676.7,142.0 L688.9,158.0 L701.0,159.6" fill="none" stroke="#59615B" stroke-width="1.5"/>
<polygon points="482.6,377.6 488.6,383.6 482.6,389.6 476.6,383.6" fill="#2859C5" stroke="#FFFFFF" stroke-width="1"/>
<text x="70.0" y="430" text-anchor="middle" class="small">day 0</text>
<text x="434.0" y="430" text-anchor="middle" class="small">day 30</text>
<text x="798.1" y="430" text-anchor="middle" class="small">day 60</text>
<text x="1150.0" y="430" text-anchor="middle" class="small">day 89</text>
<text x="70" y="460" class="small" fill="#137A3D">● SolidHunt: miss</text>
<text x="350" y="460" class="small" fill="#A76100">■ Casual shopper: miss</text>
<text x="680" y="460" class="small" fill="#2859C5">◆ Optimal: day 34, €137.58</text>
</svg>
