<svg xmlns="http://www.w3.org/2000/svg" width="1200" height="480" viewBox="0 0 1200 480" role="img" aria-labelledby="title desc">
<title id="title">Timeline run-090</title>
<desc id="desc">Full 90-day legitimate landed-price curve with cap and purchase markers.</desc>
<rect width="1200" height="480" fill="#FFFFFF"/>
<style>text{font-family:Inter,Arial,sans-serif;fill:#080808} .small{font-size:11px} .label{font-size:13px;font-weight:600} .title{font-size:22px;font-weight:700}</style>
<text x="48" y="40" class="title">run-090 · M990GL6 · EU 40</text>
<text x="48" y="66" class="label">Cap €190.00 · optimum €189.89 on day 1</text>
<rect x="70.0" y="95.0" width="1080.0" height="310.0" fill="#F4F6F3" stroke="#D8DDD9"/>
<line x1="70.0" y1="383.1" x2="1150.0" y2="383.1" stroke="#C52A22" stroke-width="1" stroke-dasharray="4 3"/>
<path d="M70.0,146.3 L82.1,383.6 L94.3,134.3 L106.4,167.6 L118.5,170.8 L130.7,170.1 L142.8,186.8 L154.9,200.1 L167.1,200.7 L179.2,194.3 L191.3,201.6 L203.5,192.4 L215.6,175.3 L227.8,166.2 L239.9,149.5 L252.0,146.9 L264.2,152.3 L276.3,154.5 L288.4,143.9" fill="none" stroke="#59615B" stroke-width="1.5"/>
<path d="M482.6,130.3 L494.7,131.0 L506.9,146.8 L519.0,156.9 L531.1,145.8 L543.3,167.5 L555.4,157.6 L567.5,176.9 L579.7,131.2 L591.8,116.4 L603.9,133.7 L616.1,129.9 L628.2,128.7 L640.3,136.7 L652.5,161.9 L664.6,169.3 L676.7,185.4 L688.9,203.6 L701.0,196.8 L713.1,191.5 L725.3,167.9 L737.4,143.0 L749.6,167.8 L761.7,169.8 L773.8,161.0 L786.0,153.6 L798.1,156.0 L810.2,164.8 L822.4,194.3 L834.5,183.5 L846.6,167.2 L858.8,166.3 L870.9,170.5 L883.0,169.0" fill="none" stroke="#59615B" stroke-width="1.5"/>
<polygon points="82.1,377.6 88.1,383.6 82.1,389.6 76.1,383.6" fill="#2859C5" stroke="#FFFFFF" stroke-width="1"/>
<text x="70.0" y="430" text-anchor="middle" class="small">day 0</text>
<text x="434.0" y="430" text-anchor="middle" class="small">day 30</text>
<text x="798.1" y="430" text-anchor="middle" class="small">day 60</text>
<text x="1150.0" y="430" text-anchor="middle" class="small">day 89</text>
<text x="70" y="460" class="small" fill="#137A3D">● SolidHunt: miss</text>
<text x="350" y="460" class="small" fill="#A76100">■ Casual shopper: miss</text>
<text x="680" y="460" class="small" fill="#2859C5">◆ Optimal: day 1, €189.89</text>
</svg>
