<svg xmlns="http://www.w3.org/2000/svg" width="1200" height="480" viewBox="0 0 1200 480" role="img" aria-labelledby="title desc">
<title id="title">Timeline run-011</title>
<desc id="desc">Full 90-day legitimate landed-price curve with cap and purchase markers.</desc>
<rect width="1200" height="480" fill="#FFFFFF"/>
<style>text{font-family:Inter,Arial,sans-serif;fill:#080808} .small{font-size:11px} .label{font-size:13px;font-weight:600} .title{font-size:22px;font-weight:700}</style>
<text x="48" y="40" class="title">run-011 · 1201A019-200 · EU 45</text>
<text x="48" y="66" class="label">Cap €145.70 · optimum €129.77 on day 22</text>
<rect x="70.0" y="95.0" width="1080.0" height="310.0" fill="#F4F6F3" stroke="#D8DDD9"/>
<line x1="70.0" y1="281.5" x2="1150.0" y2="281.5" stroke="#C52A22" stroke-width="1" stroke-dasharray="4 3"/>
<path d="M70.0,166.5 L82.1,156.5 L94.3,156.8 L106.4,142.6 L118.5,146.8 L130.7,131.8 L142.8,363.8 L154.9,376.9 L167.1,371.6 L179.2,134.8 L191.3,136.1 L203.5,140.5 L215.6,151.2 L227.8,157.9 L239.9,166.3 L252.0,166.3 L264.2,175.8 L276.3,179.2 L288.4,172.7 L300.6,177.9 L312.7,179.0 L324.8,176.3 L337.0,383.6 L349.1,205.8 L361.2,195.6 L373.4,161.8 L385.5,155.5 L397.6,159.2 L409.8,155.6 L421.9,149.1 L434.0,143.4 L446.2,127.9 L458.3,132.3 L470.4,121.3 L482.6,116.4 L494.7,133.7 L506.9,124.3 L519.0,136.9 L531.1,131.0 L543.3,138.3 L555.4,131.2 L567.5,131.3 L579.7,145.0 L591.8,153.4 L603.9,170.7 L616.1,159.7 L628.2,185.3 L640.3,183.8 L652.5,159.1 L664.6,141.9 L676.7,137.2 L688.9,138.2 L701.0,143.1 L713.1,159.8 L725.3,163.6 L737.4,145.0 L749.6,148.5 L761.7,150.7 L773.8,172.8 L786.0,178.4 L798.1,193.1 L810.2,193.1 L822.4,193.0 L834.5,186.4 L846.6,190.7 L858.8,179.4 L870.9,195.2 L883.0,195.2 L895.2,206.6 L907.3,195.1 L919.4,199.0 L931.6,220.2" fill="none" stroke="#59615B" stroke-width="1.5"/>
<path d="M992.2,127.8 L1004.4,128.1 L1016.5,134.7 L1028.7,128.5 L1040.8,121.4 L1052.9,124.2 L1065.1,143.8 L1077.2,146.1 L1089.3,145.3 L1101.5,132.1 L1113.6,139.5 L1125.7,136.1 L1137.9,150.1 L1150.0,160.4" fill="none" stroke="#59615B" stroke-width="1.5"/>
<polygon points="337.0,377.6 343.0,383.6 337.0,389.6 331.0,383.6" fill="#2859C5" stroke="#FFFFFF" stroke-width="1"/>
<rect x="136.8" y="357.8" width="12.0" height="12.0" fill="#A76100" stroke="#FFFFFF" stroke-width="1"/>
<text x="70.0" y="430" text-anchor="middle" class="small">day 0</text>
<text x="434.0" y="430" text-anchor="middle" class="small">day 30</text>
<text x="798.1" y="430" text-anchor="middle" class="small">day 60</text>
<text x="1150.0" y="430" text-anchor="middle" class="small">day 89</text>
<text x="70" y="460" class="small" fill="#137A3D">● SolidHunt: miss</text>
<text x="350" y="460" class="small" fill="#A76100">■ Casual shopper: day 6, €132.86</text>
<text x="680" y="460" class="small" fill="#2859C5">◆ Optimal: day 22, €129.77</text>
</svg>
