<svg xmlns="http://www.w3.org/2000/svg" width="1200" height="480" viewBox="0 0 1200 480" role="img" aria-labelledby="title desc">
<title id="title">Timeline run-039</title>
<desc id="desc">Full 90-day legitimate landed-price curve with cap and purchase markers.</desc>
<rect width="1200" height="480" fill="#FFFFFF"/>
<style>text{font-family:Inter,Arial,sans-serif;fill:#080808} .small{font-size:11px} .label{font-size:13px;font-weight:600} .title{font-size:22px;font-weight:700}</style>
<text x="48" y="40" class="title">run-039 · SH003895 · EU 44</text>
<text x="48" y="66" class="label">Cap €179.31 · optimum €174.45 on day 88</text>
<rect x="70.0" y="95.0" width="1080.0" height="310.0" fill="#F4F6F3" stroke="#D8DDD9"/>
<line x1="70.0" y1="360.0" x2="1150.0" y2="360.0" stroke="#C52A22" stroke-width="1" stroke-dasharray="4 3"/>
<path d="M70.0,147.4 L82.1,150.8 L94.3,161.0 L106.4,156.7 L118.5,147.9 L130.7,161.9 L142.8,171.9 L154.9,152.6 L167.1,151.8 L179.2,148.9 L191.3,134.5 L203.5,142.3 L215.6,126.3 L227.8,125.6 L239.9,121.6 L252.0,132.9 L264.2,148.2 L276.3,142.3 L288.4,374.9 L300.6,377.0 L312.7,373.8 L324.8,131.3 L337.0,116.9 L349.1,116.4 L361.2,130.6 L373.4,132.8 L385.5,125.3 L397.6,131.3 L409.8,129.5 L421.9,142.5 L434.0,150.7 L446.2,129.7 L458.3,156.6 L470.4,145.9 L482.6,135.4 L494.7,140.2 L506.9,143.3 L519.0,150.9 L531.1,149.7 L543.3,158.8 L555.4,153.7 L567.5,172.4 L579.7,164.8 L591.8,179.7 L603.9,184.7 L616.1,180.8 L628.2,190.6 L640.3,173.3 L652.5,172.9" fill="none" stroke="#59615B" stroke-width="1.5"/>
<path d="M725.3,312.2 L737.4,326.2 L749.6,326.2 L761.7,168.5 L773.8,173.7 L786.0,163.6 L798.1,192.1 L810.2,206.7 L822.4,191.6 L834.5,170.5 L846.6,164.4 L858.8,155.0 L870.9,157.3 L883.0,144.1 L895.2,153.7 L907.3,171.5 L919.4,180.4 L931.6,170.3 L943.7,159.0 L955.8,153.8 L968.0,151.7 L980.1,155.1 L992.2,159.0 L1004.4,167.9 L1016.5,176.1 L1028.7,157.7 L1040.8,138.1 L1052.9,139.6 L1065.1,147.3 L1077.2,174.7 L1089.3,180.9 L1101.5,173.6 L1113.6,191.4 L1125.7,191.0 L1137.9,383.6 L1150.0,363.7" fill="none" stroke="#59615B" stroke-width="1.5"/>
<polygon points="1137.9,377.6 1143.9,383.6 1137.9,389.6 1131.9,383.6" fill="#2859C5" stroke="#FFFFFF" stroke-width="1"/>
<rect x="282.4" y="368.9" width="12.0" height="12.0" fill="#A76100" stroke="#FFFFFF" stroke-width="1"/>
<text x="70.0" y="430" text-anchor="middle" class="small">day 0</text>
<text x="434.0" y="430" text-anchor="middle" class="small">day 30</text>
<text x="798.1" y="430" text-anchor="middle" class="small">day 60</text>
<text x="1150.0" y="430" text-anchor="middle" class="small">day 89</text>
<text x="70" y="460" class="small" fill="#137A3D">● SolidHunt: miss</text>
<text x="350" y="460" class="small" fill="#A76100">■ Casual shopper: day 18, €176.25</text>
<text x="680" y="460" class="small" fill="#2859C5">◆ Optimal: day 88, €174.45</text>
</svg>
